<svg width="20" height="20" viewBox="0 0 20 20" fill="none" xmlns="http://www.w3.org/2000/svg">
<path d="M20 5.63672C20.0008 5.51608 19.9756 5.39649 19.9258 5.28481C19.876 5.17312 19.8027 5.07154 19.71 4.98589L15.47 1.09922C15.3766 1.01426 15.2658 0.94705 15.1439 0.901432C15.0221 0.855815 14.8916 0.832692 14.76 0.833389C14.6284 0.832692 14.4979 0.855815 14.3761 0.901432C14.2543 0.94705 14.1435 1.01426 14.05 1.09922L11.22 3.69339L0.290017 13.7126C0.197335 13.7982 0.12401 13.8998 0.0742455 14.0115C0.0244809 14.1232 -0.000744179 14.2428 1.67143e-05 14.3634V18.2501C1.67143e-05 18.4932 0.105374 18.7263 0.29291 18.8982C0.480446 19.0701 0.7348 19.1667 1.00002 19.1667H5.24002C5.37994 19.1737 5.51991 19.1536 5.65084 19.1078C5.78176 19.062 5.90073 18.9915 6.00002 18.9009L16.87 8.88172L19.71 6.33339C19.8013 6.24455 19.8757 6.14229 19.93 6.03089C19.9396 5.95782 19.9396 5.88396 19.93 5.81089C19.9347 5.76822 19.9347 5.72523 19.93 5.68256L20 5.63672ZM4.83002 17.3334H2.00002V14.7392L11.93 5.63672L14.76 8.23089L4.83002 17.3334ZM16.17 6.93839L13.34 4.34422L14.76 3.05172L17.58 5.63672L16.17 6.93839Z" fill="#5DACDF"/>
</svg>
