<svg width="19" height="19" viewBox="0 0 19 19" fill="none" xmlns="http://www.w3.org/2000/svg">
<path d="M6.57708 9.30833L4.25312 7.00833L5.25937 6.00208L6.55312 7.29583L8.94896 4.9L9.95521 5.90625L6.57708 9.30833ZM16.7833 18.125L10.7458 12.0875C10.2667 12.4708 9.71562 12.7743 9.09271 12.9979C8.46979 13.2215 7.80694 13.3333 7.10417 13.3333C5.36319 13.3333 3.88992 12.7305 2.68433 11.525C1.47811 10.3187 0.875 8.84514 0.875 7.10417C0.875 5.36319 1.47811 3.8896 2.68433 2.68338C3.88992 1.47779 5.36319 0.875 7.10417 0.875C8.84514 0.875 10.3187 1.47779 11.525 2.68338C12.7305 3.8896 13.3333 5.36319 13.3333 7.10417C13.3333 7.80694 13.2215 8.46979 12.9979 9.09271C12.7743 9.71562 12.4708 10.2667 12.0875 10.7458L18.125 16.7833L16.7833 18.125ZM7.10417 11.4167C8.30208 11.4167 9.32047 10.9976 10.1593 10.1593C10.9976 9.32047 11.4167 8.30208 11.4167 7.10417C11.4167 5.90625 10.9976 4.88786 10.1593 4.049C9.32047 3.21078 8.30208 2.79167 7.10417 2.79167C5.90625 2.79167 4.88786 3.21078 4.049 4.049C3.21078 4.88786 2.79167 5.90625 2.79167 7.10417C2.79167 8.30208 3.21078 9.32047 4.049 10.1593C4.88786 10.9976 5.90625 11.4167 7.10417 11.4167Z" fill="url(#paint0_linear_1_1413)"/>
<defs>
<linearGradient id="paint0_linear_1_1413" x1="7.28284" y1="-9.9925" x2="19.9712" y2="-7.37162" gradientUnits="userSpaceOnUse">
<stop stop-color="#2BB06F"/>
<stop offset="1" stop-color="#029643"/>
</linearGradient>
</defs>
</svg>
