<svg width="43" height="43" viewBox="0 0 43 43" fill="none" xmlns="http://www.w3.org/2000/svg">
<circle cx="21.5" cy="21.5" r="21.5" fill="url(#paint0_linear_0_174)"/>
<path d="M31.1666 8.20837V11.8334H34.7916V14.25H31.1666V17.875H28.75V14.25H25.125V11.8334H28.75V8.20837H31.1666ZM21.5 22.7084C20.1708 22.7084 19.0833 21.6209 19.0833 20.2917C19.0833 18.9625 20.1708 17.875 21.5 17.875C22.8291 17.875 23.9166 18.9625 23.9166 20.2917C23.9166 21.6209 22.8291 22.7084 21.5 22.7084ZM22.7083 10.6975V13.1384C22.3086 13.0752 21.9046 13.0429 21.5 13.0417C17.4521 13.0417 14.25 16.1471 14.25 20.5334C14.25 23.3609 16.6062 27.1067 21.5 31.5775C26.3937 27.1067 28.75 23.373 28.75 20.5334V20.2917H31.1666V20.5334C31.1666 24.545 27.9404 29.2938 21.5 34.7917C15.0596 29.2938 11.8333 24.545 11.8333 20.5334C11.8333 14.5159 16.425 10.625 21.5 10.625C21.9108 10.625 22.3096 10.6492 22.7083 10.6975Z" fill="white"/>
<defs>
<linearGradient id="paint0_linear_0_174" x1="3.655" y1="-4.12374e-06" x2="55.9684" y2="46.08" gradientUnits="userSpaceOnUse">
<stop stop-color="#7FBFE6"/>
<stop offset="1" stop-color="#1BA4DE"/>
</linearGradient>
</defs>
</svg>
