<svg width="120" height="120" viewBox="0 0 120 120" fill="none" xmlns="http://www.w3.org/2000/svg">
<g opacity="0.8">
<mask id="mask0_0_604" style="mask-type:luminance" maskUnits="userSpaceOnUse" x="7" y="5" width="114" height="86">
<path d="M36.6753 85.3099L36.5285 85.2623L36.3805 85.3057L18.8927 90.4339L7.53693 87.8874V20.6733L24.614 5.73538L41.2433 22.2883L41.3706 22.415L41.5493 22.4318L50.0979 23.2345L51.09 41.2009L51.1158 41.6684L51.584 41.6733L120.436 42.3891V70.4478L52.0578 79.9617L51.6129 80.0236L51.627 80.4726L51.9348 90.2553L36.6753 85.3099Z" fill="white" stroke="white"/>
</mask>
<g mask="url(#mask0_0_604)">
<g filter="url(#filter0_d_0_604)">
<path d="M110.788 -24.2295L-20.1161 12.7167L17.2423 120.212L148.147 83.2661L110.788 -24.2295Z" fill="url(#paint0_linear_0_604)"/>
</g>
</g>
<mask id="mask1_0_604" style="mask-type:luminance" maskUnits="userSpaceOnUse" x="7" y="85" width="114" height="35">
<path d="M85.6193 90.9502L67.199 86.5637L50.5734 90.9502L33.8589 86.5637L17.9739 90.9502L7.03693 89.0087V120H119.273L120.166 90.9502L104.687 85.5033L85.6193 90.9502Z" fill="white"/>
</mask>
<g mask="url(#mask1_0_604)">
<path d="M7.81812 77.0513L3.87311 119.746L119.391 128.414L123.336 85.7198L7.81812 77.0513Z" fill="url(#paint1_linear_0_604)"/>
</g>
<mask id="mask2_0_604" style="mask-type:luminance" maskUnits="userSpaceOnUse" x="7" y="83" width="114" height="37">
<path d="M85.6193 89.1193L67.199 84.7329L50.5734 89.1193L33.8589 84.7329L17.9739 89.1193L7.03693 87.1778V120H119.213L120.166 89.1193L104.687 83.6725L85.6193 89.1193Z" fill="white"/>
</mask>
<g mask="url(#mask2_0_604)">
<g filter="url(#filter1_d_0_604)">
<path d="M7.81697 75.2216L3.70407 119.733L119.391 128.414L123.504 83.9027L7.81697 75.2216Z" fill="url(#paint2_linear_0_604)"/>
<path d="M4.24867 119.273L8.26956 75.7569L122.959 84.3632L118.938 127.879L4.24867 119.273Z" stroke="black"/>
</g>
</g>
<path d="M166.334 118.997H120.943V41.1733L143.638 22.7769L166.334 41.1733V78.2865" stroke="#1D1D1B" stroke-width="2" stroke-miterlimit="10"/>
<path d="M2.72107 42.1003L51.7345 41.982" stroke="#1D1D1B" stroke-width="3" stroke-miterlimit="10"/>
<path d="M2.72107 48.7067H49.2881" stroke="#1D1D1B" stroke-width="3" stroke-miterlimit="10"/>
<path d="M52.9294 89.3903L49.2809 48.684L51.5919 41.8945L51.7274 21.9724L43.7743 21.9342L24.8377 3L4.69479 21.8961" stroke="#1D1D1B" stroke-width="3" stroke-miterlimit="10"/>
<path d="M50.5742 41.8944H120.937" stroke="#1D1D1B" stroke-width="3" stroke-miterlimit="10"/>
<path d="M58.0322 46.2541V54.1344" stroke="#1D1D1B" stroke-width="3" stroke-miterlimit="10"/>
<path d="M67.0007 46.2541V54.1344" stroke="#1D1D1B" stroke-width="3" stroke-miterlimit="10"/>
<path d="M75.9586 46.2541V54.1344" stroke="#1D1D1B" stroke-width="3" stroke-miterlimit="10"/>
<path d="M84.9324 46.2541V54.1344" stroke="#1D1D1B" stroke-width="2" stroke-miterlimit="10"/>
<path d="M93.9009 46.2541V54.1344" stroke="#1D1D1B" stroke-width="2" stroke-miterlimit="10"/>
<path d="M102.869 46.2541V54.1344" stroke="#1D1D1B" stroke-width="2" stroke-miterlimit="10"/>
<path d="M111.838 46.2541V54.1344" stroke="#1D1D1B" stroke-width="2" stroke-miterlimit="10"/>
<path d="M17.9707 88.8027V70.9212C17.9463 69.9674 18.1336 69.0188 18.5218 68.1311C18.91 67.2434 19.4911 66.4346 20.2311 65.7523C20.971 65.0699 21.8548 64.5276 22.8306 64.1574C23.8064 63.7872 24.8544 63.5965 25.9132 63.5965C26.9719 63.5965 28.02 63.7872 28.9957 64.1574C29.9715 64.5276 30.8554 65.0699 31.5953 65.7523C32.3352 66.4346 32.9164 67.2434 33.3045 68.1311C33.6927 69.0188 33.8801 69.9674 33.8556 70.9212V85.797" stroke="#1D1D1B" stroke-width="3" stroke-miterlimit="10"/>
<path d="M0 86.476C8.63449 86.476 8.63449 90.2903 17.2732 90.2903C25.9119 90.2903 25.9119 86.476 34.5507 86.476C43.1894 86.476 43.1851 90.2903 51.8239 90.2903C60.4626 90.2903 60.4626 86.476 69.1013 86.476C77.74 86.476 77.74 90.2903 86.3788 90.2903C95.0175 90.2903 95.0175 86.476 103.66 86.476C112.303 86.476 112.299 90.2903 120.938 90.2903" stroke="#1D1D1B" stroke-width="3" stroke-miterlimit="10"/>
<path d="M0 95.8668C8.63449 95.8668 8.63449 99.6811 17.2732 99.6811C25.9119 99.6811 25.9119 95.8668 34.5507 95.8668C43.1894 95.8668 43.1851 99.6811 51.8239 99.6811C60.4626 99.6811 60.4626 95.8668 69.1013 95.8668C77.74 95.8668 77.74 99.6811 86.3788 99.6811C95.0175 99.6811 95.0175 95.8668 103.66 95.8668C112.303 95.8668 112.299 99.6811 120.938 99.6811" stroke="#1D1D1B" stroke-width="3" stroke-miterlimit="10"/>
<path d="M0 105.242C8.63449 105.242 8.63449 109.057 17.2732 109.057C25.9119 109.057 25.9119 105.242 34.5507 105.242C43.1894 105.242 43.1851 109.057 51.8239 109.057C60.4626 109.057 60.4626 105.242 69.1013 105.242C77.74 105.242 77.74 109.057 86.3788 109.057C95.0175 109.057 95.0175 105.242 103.66 105.242C112.303 105.242 112.299 109.057 120.938 109.057" stroke="#1D1D1B" stroke-width="3" stroke-miterlimit="10"/>
<path d="M0 114.622C8.63449 114.622 8.63449 118.436 17.2732 118.436C25.9119 118.436 25.9119 114.622 34.5507 114.622C43.1894 114.622 43.1851 118.436 51.8239 118.436C60.4626 118.436 60.4626 114.622 69.1013 114.622C77.74 114.622 77.74 118.436 86.3788 118.436C95.0175 118.436 95.0175 114.622 103.66 114.622C112.303 114.622 112.299 118.436 120.938 118.436" stroke="#1D1D1B" stroke-width="3" stroke-miterlimit="10"/>
<path d="M52.1321 80.4571L119.117 71.379" stroke="#1D1D1B" stroke-width="3" stroke-miterlimit="10"/>
</g>
<defs>
<filter id="filter0_d_0_604" x="-24.1161" y="-24.2295" width="176.263" height="152.442" filterUnits="userSpaceOnUse" color-interpolation-filters="sRGB">
<feFlood flood-opacity="0" result="BackgroundImageFix"/>
<feColorMatrix in="SourceAlpha" type="matrix" values="0 0 0 0 0 0 0 0 0 0 0 0 0 0 0 0 0 0 127 0" result="hardAlpha"/>
<feOffset dy="4"/>
<feGaussianBlur stdDeviation="2"/>
<feComposite in2="hardAlpha" operator="out"/>
<feColorMatrix type="matrix" values="0 0 0 0 0 0 0 0 0 0 0 0 0 0 0 0 0 0 0.25 0"/>
<feBlend mode="normal" in2="BackgroundImageFix" result="effect1_dropShadow_0_604"/>
<feBlend mode="normal" in="SourceGraphic" in2="effect1_dropShadow_0_604" result="shape"/>
</filter>
<filter id="filter1_d_0_604" x="-0.295929" y="75.2216" width="127.8" height="61.1927" filterUnits="userSpaceOnUse" color-interpolation-filters="sRGB">
<feFlood flood-opacity="0" result="BackgroundImageFix"/>
<feColorMatrix in="SourceAlpha" type="matrix" values="0 0 0 0 0 0 0 0 0 0 0 0 0 0 0 0 0 0 127 0" result="hardAlpha"/>
<feOffset dy="4"/>
<feGaussianBlur stdDeviation="2"/>
<feComposite in2="hardAlpha" operator="out"/>
<feColorMatrix type="matrix" values="0 0 0 0 0 0 0 0 0 0 0 0 0 0 0 0 0 0 0.25 0"/>
<feBlend mode="normal" in2="BackgroundImageFix" result="effect1_dropShadow_0_604"/>
<feBlend mode="normal" in="SourceGraphic" in2="effect1_dropShadow_0_604" result="shape"/>
</filter>
<linearGradient id="paint0_linear_0_604" x1="45.8007" y1="-7.1186" x2="62.9701" y2="53.7143" gradientUnits="userSpaceOnUse">
<stop stop-color="#E79B7D"/>
<stop offset="0.53" stop-color="#DC6D4C"/>
<stop offset="0.76" stop-color="#D65237"/>
<stop offset="1" stop-color="#D13B24"/>
</linearGradient>
<linearGradient id="paint1_linear_0_604" x1="65.1986" y1="89.2916" x2="62.7952" y2="121.32" gradientUnits="userSpaceOnUse">
<stop stop-color="#BFD8F2"/>
<stop offset="0.5" stop-color="#B8D4F0"/>
<stop offset="1" stop-color="#5DACDF"/>
</linearGradient>
<linearGradient id="paint2_linear_0_604" x1="65.552" y1="87.4923" x2="63.1486" y2="119.52" gradientUnits="userSpaceOnUse">
<stop stop-color="#BFD8F2"/>
<stop offset="0.5" stop-color="#B8D4F0"/>
<stop offset="1" stop-color="#5DACDF"/>
</linearGradient>
</defs>
</svg>
