<svg width="24" height="23" viewBox="0 0 24 23" fill="none" xmlns="http://www.w3.org/2000/svg">
<path d="M11.5 21.0834C9.96667 21.0834 8.66667 20.5722 7.6 19.55C6.53333 18.5278 6 17.282 6 15.8125V5.75002C6 4.69585 6.39167 3.79342 7.175 3.04273C7.95833 2.29203 8.9 1.91669 10 1.91669C11.1 1.91669 12.0417 2.29203 12.825 3.04273C13.6083 3.79342 14 4.69585 14 5.75002V13.4167H12.5V5.75002C12.5 5.07919 12.2583 4.51217 11.775 4.04898C11.2917 3.58578 10.7 3.35419 10 3.35419C9.3 3.35419 8.70833 3.58578 8.225 4.04898C7.74167 4.51217 7.5 5.07919 7.5 5.75002V15.8125C7.5 16.8667 7.89167 17.7691 8.675 18.5198C9.45833 19.2705 10.4 19.6459 11.5 19.6459C11.9833 19.6459 12.4377 19.5698 12.863 19.4178C13.2883 19.2657 13.6673 19.0542 14 18.7834V20.5084C13.6167 20.684 13.2167 20.824 12.8 20.9281C12.3833 21.0322 11.95 21.084 11.5 21.0834ZM16 17.25H14C13.7167 17.25 13.479 17.158 13.287 16.974C13.095 16.79 12.9993 16.5626 13 16.2917C13 16.0202 13.096 15.7924 13.288 15.6084C13.48 15.4244 13.7173 15.3327 14 15.3334H16V13.4167C16 13.1452 16.096 12.9174 16.288 12.7334C16.48 12.5494 16.7173 12.4577 17 12.4584C17.2833 12.4584 17.521 12.5504 17.713 12.7344C17.905 12.9184 18.0007 13.1458 18 13.4167V15.3334H20C20.2833 15.3334 20.521 15.4254 20.713 15.6094C20.905 15.7934 21.0007 16.0208 21 16.2917C21 16.5632 20.904 16.791 20.712 16.975C20.52 17.159 20.2827 17.2507 20 17.25H18V19.1667C18 19.4382 17.904 19.666 17.712 19.85C17.52 20.034 17.2827 20.1257 17 20.125C16.7167 20.125 16.479 20.033 16.287 19.849C16.095 19.665 15.9993 19.4376 16 19.1667V17.25ZM11.5 15.8125V17.25C10.8 17.25 10.2083 17.0184 9.725 16.5552C9.24167 16.092 9 15.525 9 14.8542V6.46877C9 6.26113 9.071 6.08959 9.213 5.95415C9.355 5.8187 9.534 5.75066 9.75 5.75002C9.96667 5.75002 10.1457 5.81806 10.287 5.95415C10.4283 6.09023 10.4993 6.26177 10.5 6.46877V14.8542C10.5 15.1257 10.596 15.3535 10.788 15.5375C10.98 15.7215 11.2173 15.8132 11.5 15.8125ZM15.5 10.5417V6.46877C15.5 6.26113 15.571 6.08959 15.713 5.95415C15.855 5.8187 16.034 5.75066 16.25 5.75002C16.4667 5.75002 16.6457 5.81806 16.787 5.95415C16.9283 6.09023 16.9993 6.26177 17 6.46877V10.5417H15.5Z" fill="#5DACDF"/>
</svg>
