<svg width="7" height="13" viewBox="0 0 7 13" fill="none" xmlns="http://www.w3.org/2000/svg">
<path d="M6.53125 12.1875C6.6875 12.0313 6.76562 11.8463 6.76562 11.6325C6.76562 11.4188 6.6875 11.234 6.53125 11.0781L1.95312 6.5L6.54688 1.90625C6.69271 1.76042 6.76562 1.57813 6.76562 1.35938C6.76562 1.14063 6.6875 0.953125 6.53125 0.796875C6.375 0.640625 6.19 0.5625 5.97625 0.5625C5.7625 0.5625 5.57771 0.640625 5.42187 0.796875L0.171874 6.0625C0.109374 6.125 0.0649991 6.19271 0.0387492 6.26563C0.0124989 6.33854 -0.000417709 6.41667 -9.53674e-07 6.5C-9.53674e-07 6.58333 0.0131235 6.66146 0.0393739 6.73438C0.0656238 6.80729 0.10979 6.875 0.171874 6.9375L5.4375 12.2031C5.58333 12.349 5.76313 12.4219 5.97688 12.4219C6.19063 12.4219 6.37542 12.3438 6.53125 12.1875Z" fill="#5DACDF"/>
</svg>
