<svg width="24" height="23" viewBox="0 0 24 23" fill="none" xmlns="http://www.w3.org/2000/svg">
<path d="M5.25 5.51041C5.66421 5.51041 6 5.18861 6 4.79166C6 4.3947 5.66421 4.07291 5.25 4.07291C4.83579 4.07291 4.5 4.3947 4.5 4.79166C4.5 5.18861 4.83579 5.51041 5.25 5.51041Z" fill="white"/>
<path d="M7.75 5.51041C8.16421 5.51041 8.5 5.18861 8.5 4.79166C8.5 4.3947 8.16421 4.07291 7.75 4.07291C7.33579 4.07291 7 4.3947 7 4.79166C7 5.18861 7.33579 5.51041 7.75 5.51041Z" fill="white"/>
<path d="M10.25 5.51041C10.6642 5.51041 11 5.18861 11 4.79166C11 4.3947 10.6642 4.07291 10.25 4.07291C9.83579 4.07291 9.5 4.3947 9.5 4.79166C9.5 5.18861 9.83579 5.51041 10.25 5.51041Z" fill="white"/>
<path d="M22.75 9.58332V4.31249C22.75 3.48645 22.4076 2.69424 21.7981 2.11015C21.1886 1.52605 20.362 1.19791 19.5 1.19791H4.5C3.63805 1.19791 2.8114 1.52605 2.2019 2.11015C1.59241 2.69424 1.25 3.48645 1.25 4.31249V18.6875C1.25 19.5135 1.59241 20.3057 2.2019 20.8898C2.8114 21.4739 3.63805 21.8021 4.5 21.8021H10C10.1989 21.8021 10.3897 21.7264 10.5303 21.5916C10.671 21.4568 10.75 21.274 10.75 21.0833C10.75 20.8927 10.671 20.7099 10.5303 20.5751C10.3897 20.4403 10.1989 20.3646 10 20.3646H4.5C4.03587 20.3646 3.59075 20.1879 3.26256 19.8734C2.93437 19.5589 2.75 19.1323 2.75 18.6875V4.31249C2.75 3.38578 3.533 2.63541 4.5 2.63541H19.5C20.467 2.63541 21.25 3.38578 21.25 4.31249V9.58332C21.25 9.77395 21.329 9.95677 21.4697 10.0916C21.6103 10.2263 21.8011 10.3021 22 10.3021C22.1989 10.3021 22.3897 10.2263 22.5303 10.0916C22.671 9.95677 22.75 9.77395 22.75 9.58332Z" fill="white"/>
<path d="M22 6.94791H2C1.80109 6.94791 1.61032 7.02363 1.46967 7.15842C1.32902 7.29322 1.25 7.47603 1.25 7.66666C1.25 7.85728 1.32902 8.0401 1.46967 8.17489C1.61032 8.30968 1.80109 8.38541 2 8.38541H22C22.1989 8.38541 22.3897 8.30968 22.5303 8.17489C22.671 8.0401 22.75 7.85728 22.75 7.66666C22.75 7.47603 22.671 7.29322 22.5303 7.15842C22.3897 7.02363 22.1989 6.94791 22 6.94791ZM16.5 9.82291C13.051 9.82291 10.25 12.5072 10.25 15.8125C10.25 19.1178 13.051 21.8021 16.5 21.8021C19.949 21.8021 22.75 19.1178 22.75 15.8125C22.75 12.5072 19.949 9.82291 16.5 9.82291ZM16.5 11.2604C19.122 11.2604 21.25 13.2997 21.25 15.8125C21.25 18.3252 19.122 20.3646 16.5 20.3646C13.878 20.3646 11.75 18.3252 11.75 15.8125C11.75 13.2997 13.878 11.2604 16.5 11.2604Z" fill="white"/>
<path d="M17.25 17.9688V13.6562C17.25 13.4656 17.171 13.2828 17.0303 13.148C16.8897 13.0132 16.6989 12.9375 16.5 12.9375C16.3011 12.9375 16.1103 13.0132 15.9697 13.148C15.829 13.2828 15.75 13.4656 15.75 13.6562V17.9688C15.75 18.1594 15.829 18.3422 15.9697 18.477C16.1103 18.6118 16.3011 18.6875 16.5 18.6875C16.6989 18.6875 16.8897 18.6118 17.0303 18.477C17.171 18.3422 17.25 18.1594 17.25 17.9688Z" fill="white"/>
<path d="M19.03 15.065L17.03 13.1483C16.9605 13.0816 16.8778 13.0286 16.7869 12.9924C16.696 12.9563 16.5985 12.9377 16.5 12.9377C16.4016 12.9377 16.3041 12.9563 16.2131 12.9924C16.1222 13.0286 16.0396 13.0816 15.97 13.1483L13.97 15.065C13.9004 15.1317 13.8452 15.2109 13.8075 15.298C13.7699 15.3852 13.7505 15.4786 13.7505 15.5729C13.7505 15.6672 13.7699 15.7606 13.8075 15.8478C13.8452 15.9349 13.9004 16.0141 13.97 16.0808C14.0396 16.1475 14.1223 16.2004 14.2132 16.2365C14.3041 16.2726 14.4016 16.2912 14.5 16.2912C14.5985 16.2912 14.6959 16.2726 14.7869 16.2365C14.8778 16.2004 14.9604 16.1475 15.03 16.0808L16.5 14.673L17.97 16.0808C18.1106 16.2155 18.3012 16.2912 18.5 16.2912C18.6988 16.2912 18.8895 16.2155 19.03 16.0808C19.1706 15.9461 19.2496 15.7634 19.2496 15.5729C19.2496 15.3824 19.1706 15.1997 19.03 15.065Z" fill="white"/>
</svg>
