<svg width="22" height="25" viewBox="0 0 22 25" fill="none" xmlns="http://www.w3.org/2000/svg">
<path d="M2.79688 16.75H1.15625C0.90761 16.75 0.669153 16.8488 0.493338 17.0246C0.317522 17.2004 0.21875 17.4389 0.21875 17.6875V23.3125C0.21875 23.5612 0.317522 23.7996 0.493338 23.9754C0.669153 24.1512 0.90761 24.25 1.15625 24.25H2.79688C3.79144 24.25 4.74526 23.8549 5.44853 23.1517C6.15179 22.4484 6.54688 21.4946 6.54688 20.5C6.54688 19.5055 6.15179 18.5516 5.44853 17.8484C4.74526 17.1451 3.79144 16.75 2.79688 16.75ZM2.79688 22.375H2.09375V18.625H2.79688C3.29416 18.625 3.77107 18.8226 4.1227 19.1742C4.47433 19.5258 4.67188 20.0027 4.67188 20.5C4.67188 20.9973 4.47433 21.4742 4.1227 21.8258C3.77107 22.1775 3.29416 22.375 2.79688 22.375ZM11.2344 16.75C9.30078 16.75 7.71875 18.4375 7.71875 20.5C7.71875 22.5625 9.30078 24.25 11.2344 24.25C13.168 24.25 14.75 22.5625 14.75 20.5C14.75 18.4375 13.168 16.75 11.2344 16.75ZM11.2344 22.375C10.332 22.375 9.59375 21.5313 9.59375 20.5C9.59375 19.4688 10.332 18.625 11.2344 18.625C12.1367 18.625 12.875 19.4688 12.875 20.5C12.875 21.5313 12.1367 22.375 11.2344 22.375ZM21.5352 22.0469C21.7029 22.2303 21.791 22.4728 21.78 22.7211C21.769 22.9695 21.6599 23.2032 21.4766 23.3711C20.8517 23.9322 20.0429 24.2449 19.2031 24.25C17.2695 24.25 15.6875 22.5625 15.6875 20.5C15.6875 18.4375 17.2695 16.75 19.2031 16.75C20.0429 16.7551 20.8517 17.0678 21.4766 17.6289C21.6599 17.7968 21.769 18.0306 21.78 18.2789C21.791 18.5272 21.7029 18.7697 21.5352 18.9531C21.4537 19.0461 21.3545 19.1218 21.2433 19.1758C21.1322 19.2298 21.0113 19.261 20.8879 19.2676C20.7645 19.2741 20.641 19.2559 20.5247 19.214C20.4085 19.1721 20.3018 19.1073 20.2109 19.0235C19.9358 18.7707 19.5768 18.6287 19.2031 18.625C18.3008 18.625 17.5625 19.4688 17.5625 20.5C17.5625 21.5313 18.3008 22.375 19.2031 22.375C19.5768 22.3713 19.9358 22.2294 20.2109 21.9766C20.3018 21.8928 20.4085 21.828 20.5247 21.786C20.641 21.7441 20.7645 21.7259 20.8879 21.7324C21.0113 21.739 21.1322 21.7702 21.2433 21.8242C21.3545 21.8782 21.4537 21.9539 21.5352 22.0469ZM1.625 13.9375C1.87364 13.9375 2.1121 13.8387 2.28791 13.6629C2.46373 13.4871 2.5625 13.2487 2.5625 13V2.68752H12.875V8.31252C12.875 8.56116 12.9738 8.79961 13.1496 8.97543C13.3254 9.15124 13.5639 9.25002 13.8125 9.25002H19.4375V13C19.4375 13.2487 19.5363 13.4871 19.7121 13.6629C19.8879 13.8387 20.1264 13.9375 20.375 13.9375C20.6236 13.9375 20.8621 13.8387 21.0379 13.6629C21.2137 13.4871 21.3125 13.2487 21.3125 13V8.31252C21.3136 8.18788 21.2893 8.06433 21.2409 7.94946C21.1925 7.83459 21.1212 7.73083 21.0312 7.64455L14.4805 1.08205C14.3019 0.907931 14.0619 0.811109 13.8125 0.812515H2.5625C2.06522 0.812515 1.58831 1.01006 1.23667 1.36169C0.885044 1.71332 0.6875 2.19023 0.6875 2.68752V13C0.6875 13.2487 0.786272 13.4871 0.962088 13.6629C1.1379 13.8387 1.37636 13.9375 1.625 13.9375ZM14.75 4.01173L18.1133 7.37502H14.75V4.01173Z" fill="white"/>
</svg>
