<svg width="30" height="30" viewBox="0 0 30 30" fill="none" xmlns="http://www.w3.org/2000/svg">
<path d="M29.1211 28.2422H27.1758V14.9376H29.1211C29.2982 14.9376 29.4711 14.8841 29.6173 14.7841C29.7634 14.6841 29.876 14.5423 29.9401 14.3773C30.0043 14.2123 30.0172 14.0317 29.977 13.8592C29.9368 13.6868 29.8455 13.5305 29.7149 13.4108L27.1758 11.0832V5.82141C27.1758 5.33602 26.7823 4.9425 26.2969 4.9425C25.8115 4.9425 25.418 5.33602 25.418 5.82141V9.47191L18.4181 3.05531C18.0821 2.74729 17.5663 2.74729 17.2303 3.05531L5.93338 13.4108C5.80282 13.5304 5.71145 13.6867 5.67125 13.8592C5.63104 14.0316 5.64388 14.2122 5.70808 14.3773C5.77227 14.5423 5.88483 14.6841 6.031 14.7841C6.17717 14.8841 6.35014 14.9376 6.52723 14.9375H8.47254V28.2422H0.878906C0.393516 28.2422 0 28.6357 0 29.1211C0 29.6065 0.393516 30 0.878906 30H29.1211C29.6065 30 30 29.6065 30 29.1211C30 28.6357 29.6065 28.2422 29.1211 28.2422ZM19.7695 28.2421H15.8789V24.3516H19.7695V28.2421ZM25.418 28.2421H21.5273V23.4727C21.5273 22.9873 21.1338 22.5938 20.6484 22.5938H15C14.5146 22.5938 14.1211 22.9873 14.1211 23.4727V28.2421H10.2305V14.9376H25.418V28.2421ZM26.2969 13.1798H8.78684L17.8242 4.89551L26.8615 13.1798H26.2969ZM8.41014 3.76576H8.24092C8.15157 3.39793 8.00603 3.04608 7.80943 2.72262L7.92873 2.60332C8.27197 2.26014 8.27203 1.70361 7.92879 1.36037C7.58555 1.01707 7.02908 1.01707 6.68584 1.36031L6.56748 1.47867C6.24398 1.28132 5.89177 1.13543 5.52346 1.04625V0.878906C5.52346 0.393516 5.12994 0 4.64455 0C4.15916 0 3.76564 0.393516 3.76564 0.878906V1.04625C3.3974 1.13545 3.04524 1.28133 2.7218 1.47867L2.60338 1.36025C2.2602 1.01701 1.70367 1.01701 1.36043 1.36031C1.01719 1.70355 1.01725 2.26002 1.36049 2.60326L1.47984 2.72262C1.28328 3.04608 1.13775 3.39791 1.04836 3.7657H0.878906C0.393516 3.7657 0 4.15922 0 4.64461C0 5.13 0.393516 5.52346 0.878906 5.52346H1.04836C1.13773 5.89118 1.28324 6.24293 1.47979 6.56631L1.36043 6.68566C1.01719 7.02885 1.01713 7.58537 1.36037 7.92861C1.44189 8.01037 1.53876 8.0752 1.64542 8.11938C1.75208 8.16357 1.86643 8.18623 1.98188 8.18607C2.20676 8.18607 2.4317 8.10029 2.60332 7.92867L2.72174 7.81031C3.0452 8.00767 3.39737 8.15355 3.76564 8.24273V8.41025C3.76564 8.89565 4.15916 9.28916 4.64455 9.28916C5.12994 9.28916 5.52346 8.89565 5.52346 8.41025V8.24279C5.89177 8.15362 6.24398 8.00774 6.56748 7.81037L6.68578 7.92873C6.7673 8.01046 6.86417 8.07527 6.97082 8.11944C7.07747 8.16362 7.19179 8.18628 7.30723 8.18613C7.53217 8.18613 7.75711 8.10035 7.92873 7.92873C8.27197 7.58549 8.27197 7.02902 7.92873 6.68578L7.80937 6.56643C8.00593 6.24304 8.15147 5.8913 8.24086 5.52357H8.41014C8.89553 5.52357 9.28904 5.13006 9.28904 4.64467C9.28904 4.15928 8.89553 3.76576 8.41014 3.76576ZM6.02074 6.01945L6.02016 6.01998L6.01957 6.02063C5.65225 6.38766 5.16404 6.5898 4.64467 6.5898C4.125 6.5898 3.6365 6.38748 3.26912 6.01998C2.51068 5.2616 2.51074 4.02744 3.26912 3.26895C3.63621 2.90174 4.12424 2.69947 4.64344 2.69918L4.64455 2.69924L4.64572 2.69918C5.16457 2.69947 5.65236 2.90145 6.01939 3.26807L6.0201 3.26883L6.02092 3.26959C6.77842 4.02797 6.77836 5.26113 6.02074 6.01945Z" fill="url(#paint0_linear_0_554)"/>
<defs>
<linearGradient id="paint0_linear_0_554" x1="11.1441" y1="-18.9" x2="33.2108" y2="-14.342" gradientUnits="userSpaceOnUse">
<stop stop-color="#2BB06F"/>
<stop offset="1" stop-color="#029643"/>
</linearGradient>
</defs>
</svg>
