<svg width="29" height="29" viewBox="0 0 29 29" fill="none" xmlns="http://www.w3.org/2000/svg">
<path d="M24.7531 4.24691C22.0143 1.50828 18.3731 0 14.5 0C10.6269 0 6.98566 1.50828 4.24691 4.24691C1.50828 6.98566 0 10.6269 0 14.5C0 18.3731 1.50828 22.0143 4.24691 24.7531C6.98566 27.4917 10.6269 29 14.5 29C18.3731 29 22.0143 27.4917 24.7531 24.7531C27.4917 22.0143 29 18.3731 29 14.5C29 10.6269 27.4917 6.98566 24.7531 4.24691ZM23.5515 23.5515C21.1337 25.9693 17.9192 27.3008 14.5 27.3008C11.0808 27.3008 7.86625 25.9693 5.44849 23.5515C3.03073 21.1337 1.69922 17.9192 1.69922 14.5C1.69922 11.0808 3.03073 7.86625 5.44849 5.44849C7.86625 3.03073 11.0808 1.69922 14.5 1.69922C17.9192 1.69922 21.1337 3.03073 23.5515 5.44849C25.9693 7.86625 27.3008 11.0808 27.3008 14.5C27.3008 17.9192 25.9693 21.1337 23.5515 23.5515Z" fill="url(#paint0_linear_0_557)"/>
<path d="M18.0832 10.9168V5.91455H10.9168V10.9168H5.91461V18.0831H10.9168V23.0853H18.0832V18.0831H23.0854V10.9168H18.0832ZM21.3862 16.3839H16.384V21.3861H12.6161V16.3839H7.61389V12.616H12.6161V7.61377H16.384V12.616H21.3862V16.3839Z" fill="url(#paint1_linear_0_557)"/>
<defs>
<linearGradient id="paint0_linear_0_557" x1="10.7726" y1="-18.27" x2="32.1038" y2="-13.8639" gradientUnits="userSpaceOnUse">
<stop stop-color="#2BB06F"/>
<stop offset="1" stop-color="#029643"/>
</linearGradient>
<linearGradient id="paint1_linear_0_557" x1="12.293" y1="-4.90304" x2="24.9231" y2="-2.2942" gradientUnits="userSpaceOnUse">
<stop stop-color="#2BB06F"/>
<stop offset="1" stop-color="#029643"/>
</linearGradient>
</defs>
</svg>
