<svg width="29" height="29" viewBox="0 0 29 29" fill="none" xmlns="http://www.w3.org/2000/svg">
<path d="M23.9566 22.6957H23.0109V14.1848C23.0109 9.49189 19.1929 5.67392 14.5 5.67392C9.8071 5.67392 5.98913 9.49189 5.98913 14.1848V22.6957H5.04351C4.52128 22.6957 4.09784 23.1191 4.09784 23.6413V28.0544C4.09784 28.5766 4.52123 29.0001 5.04351 29.0001H23.9566C24.4788 29.0001 24.9022 28.5767 24.9022 28.0544V23.6413C24.9022 23.1191 24.4788 22.6957 23.9566 22.6957ZM7.88041 14.1848C7.88041 10.5348 10.85 7.56521 14.5 7.56521C18.15 7.56521 21.1196 10.5348 21.1196 14.1848V22.6957H7.88041V14.1848ZM23.0109 27.1087H5.98913V24.587H23.0109V27.1087ZM14.5 0C13.9778 0 13.5543 0.423389 13.5543 0.945672V2.83696C13.5543 3.35919 13.9777 3.78263 14.5 3.78263C15.0223 3.78263 15.4457 3.35924 15.4457 2.83696V0.945672C15.4457 0.423389 15.0222 0 14.5 0Z" fill="url(#paint0_linear_0_536)"/>
<path d="M14.5 9.45656C13.9778 9.45656 13.5543 9.87995 13.5543 10.4022C13.5543 10.9245 13.9777 11.3479 14.5 11.3479C16.0643 11.3479 17.3369 12.6206 17.3369 14.1849C17.3369 14.7071 17.7603 15.1305 18.2826 15.1305C18.8049 15.1305 19.2283 14.7071 19.2283 14.1849C19.2282 11.5776 17.1071 9.45656 14.5 9.45656ZM3.15214 13.2391H1.26086C0.738631 13.2391 0.315186 13.6625 0.315186 14.1848C0.315186 14.707 0.738574 15.1305 1.26086 15.1305H3.15214C3.67437 15.1305 4.09782 14.7071 4.09782 14.1848C4.09782 13.6625 3.67443 13.2391 3.15214 13.2391ZM27.7391 13.2391H25.8478C25.3256 13.2391 24.9021 13.6625 24.9021 14.1848C24.9021 14.707 25.3255 15.1305 25.8478 15.1305H27.7391C28.2613 15.1305 28.6848 14.7071 28.6848 14.1848C28.6848 13.6625 28.2614 13.2391 27.7391 13.2391ZM24.5301 4.15466C24.1609 3.78536 23.5621 3.78536 23.1928 4.15466L21.8554 5.492C21.4861 5.8613 21.4861 6.46005 21.8554 6.82934C22.2246 7.19864 22.8235 7.1987 23.1928 6.82934L24.5301 5.492C24.8994 5.12265 24.8994 4.52396 24.5301 4.15466ZM7.14452 5.492L5.80717 4.15466C5.43793 3.78536 4.83913 3.78536 4.46983 4.15466C4.10054 4.52396 4.10054 5.1227 4.46983 5.492L5.80717 6.82934C6.17641 7.19864 6.77522 7.1987 7.14452 6.82934C7.51381 6.45999 7.51381 5.8613 7.14452 5.492Z" fill="url(#paint1_linear_0_536)"/>
<defs>
<linearGradient id="paint0_linear_0_536" x1="11.826" y1="-18.27" x2="27.4389" y2="-15.9565" gradientUnits="userSpaceOnUse">
<stop stop-color="#2BB06F"/>
<stop offset="1" stop-color="#029643"/>
</linearGradient>
<linearGradient id="paint1_linear_0_536" x1="10.8536" y1="-3.21161" x2="27.9698" y2="5.70168" gradientUnits="userSpaceOnUse">
<stop stop-color="#2BB06F"/>
<stop offset="1" stop-color="#029643"/>
</linearGradient>
</defs>
</svg>
