<svg width="30" height="24" viewBox="0 0 30 24" fill="none" xmlns="http://www.w3.org/2000/svg">
<path d="M29.7426 17.5892L27.4189 15.2654V7.29488L28.9359 6.74796C29.106 6.68673 29.253 6.57455 29.357 6.42671C29.4609 6.27888 29.5168 6.10257 29.5169 5.92184C29.5171 5.7411 29.4615 5.56472 29.3577 5.41673C29.2539 5.26875 29.107 5.15636 28.9371 5.09489L15.0576 0.0683799C14.8642 -0.00163444 14.6524 -0.00163444 14.4591 0.0683799L0.579604 5.09489C0.410358 5.15624 0.26403 5.26807 0.160405 5.41528C0.0567794 5.56248 0.000853708 5.73796 0.000189098 5.91798C-0.000475511 6.098 0.054153 6.27388 0.156689 6.42185C0.259225 6.56981 0.404722 6.68273 0.573511 6.74532L5.69581 8.64281V14.4346C5.69581 14.6144 5.75089 14.7898 5.85371 14.9372C5.91025 15.0183 6.4458 15.7497 7.817 16.4398C9.54927 17.3119 11.8213 17.754 14.5699 17.754C17.3165 17.754 19.6001 17.3128 21.3571 16.4425C22.7418 15.7566 23.2952 15.0328 23.3538 14.9526C23.4634 14.8022 23.5225 14.6209 23.5225 14.4347V8.69953L25.6613 7.92845V15.2654L23.3376 17.5892C23.1728 17.754 23.0802 17.9775 23.0802 18.2106C23.0802 18.4436 23.1728 18.6671 23.3376 18.8319L25.6613 21.1556V23.1052C25.6613 23.5906 26.0548 23.9841 26.5401 23.9841C27.0255 23.9841 27.4189 23.5906 27.4189 23.1052V21.1556L29.7426 18.8319C30.0858 18.4888 30.0858 17.9323 29.7426 17.5892ZM14.7583 1.82936L26.0519 5.91934L14.5741 10.0574L3.4339 5.93053L14.7583 1.82936ZM21.7648 14.0844C18.7605 16.7877 9.83296 16.4777 7.45346 14.0932V9.29396L14.2646 11.8171C14.3727 11.8342 14.4748 11.9274 14.868 11.8198L21.7649 9.33333L21.7648 14.0844ZM26.5401 19.5488L25.2017 18.2106L26.5401 16.8722L27.8783 18.2106L26.5401 19.5488Z" fill="url(#paint0_linear_0_552)"/>
<defs>
<linearGradient id="paint0_linear_0_552" x1="11.1442" y1="-15.0841" x2="32.7107" y2="-9.50832" gradientUnits="userSpaceOnUse">
<stop stop-color="#2BB06F"/>
<stop offset="1" stop-color="#029643"/>
</linearGradient>
</defs>
</svg>
