<svg width="20" height="22" viewBox="0 0 20 22" fill="none" xmlns="http://www.w3.org/2000/svg">
<path d="M12 11L8 7V10H0V12H8V15M20 11C20.0005 13.3895 19.1453 15.7002 17.5893 17.5137C16.0333 19.3272 13.8794 20.5235 11.5175 20.8861C9.15569 21.2487 6.74208 20.7536 4.71373 19.4905C2.68538 18.2273 1.17639 16.2796 0.46 14H2.59C3.2862 15.7211 4.55932 17.1464 6.19117 18.0318C7.82301 18.9171 9.71198 19.2073 11.5343 18.8527C13.3567 18.4981 14.999 17.5207 16.1797 16.088C17.3605 14.6553 18.0062 12.8565 18.0062 11C18.0062 9.14346 17.3605 7.34471 16.1797 5.91203C14.999 4.47935 13.3567 3.50194 11.5343 3.14731C9.71198 2.79268 7.82301 3.08291 6.19117 3.96825C4.55932 4.8536 3.2862 6.27894 2.59 8H0.46C1.17639 5.72041 2.68538 3.77269 4.71373 2.50953C6.74208 1.24637 9.15569 0.75127 11.5175 1.11389C13.8794 1.4765 16.0333 2.67286 17.5893 4.48633C19.1453 6.2998 20.0005 8.61049 20 11Z" fill="#01A856"/>
</svg>
