<svg width="14" height="14" viewBox="0 0 14 14" fill="none" xmlns="http://www.w3.org/2000/svg">
<g clip-path="url(#clip0_0_48)">
<path d="M7 14C7.42634 14.0001 7.83808 13.8446 8.15789 13.5627C8.4777 13.2808 8.68358 12.8918 8.73687 12.4688C8.75175 12.3489 8.652 12.25 8.53125 12.25H5.46875C5.348 12.25 5.24825 12.3489 5.26312 12.4688C5.31642 12.8918 5.5223 13.2808 5.84211 13.5627C6.16191 13.8446 6.57365 14.0001 7 14ZM2.625 4.375C2.625 3.21468 3.08593 2.10188 3.9064 1.28141C4.72688 0.460936 5.83967 0 7 0C8.16032 0 9.27312 0.460936 10.0936 1.28141C10.9141 2.10188 11.375 3.21468 11.375 4.375V6.95363C11.375 6.99738 11.3881 7.03938 11.4117 7.07525L12.9019 9.31087C13.0347 9.51096 13.1108 9.74329 13.1221 9.98317C13.1334 10.223 13.0796 10.4615 12.9662 10.6732C12.8529 10.8849 12.6843 11.062 12.4784 11.1856C12.2724 11.3091 12.0369 11.3746 11.7967 11.375H2.20325C1.9626 11.3756 1.72634 11.3107 1.51975 11.1873C1.31316 11.0639 1.14403 10.8866 1.03049 10.6744C0.91694 10.4622 0.863248 10.2232 0.875162 9.98283C0.887076 9.74248 0.964148 9.5099 1.09812 9.31L2.58825 7.07525C2.61202 7.03913 2.62479 6.99687 2.625 6.95363V4.375ZM7 1.3125C6.18777 1.3125 5.40881 1.63516 4.83448 2.20949C4.26015 2.78382 3.9375 3.56277 3.9375 4.375V6.95363C3.9375 7.25637 3.84825 7.55125 3.68025 7.80237L2.19012 10.0389C2.18835 10.0414 2.18743 10.0445 2.1875 10.0476L2.18837 10.0529C2.18837 10.0546 2.19012 10.0564 2.19187 10.0581L2.19712 10.0616L2.20325 10.0625H11.7967L11.8029 10.0616L11.8081 10.0581L11.8116 10.0529L11.8125 10.0468C11.8126 10.0436 11.8116 10.0406 11.8099 10.038L10.3197 7.80325C10.1519 7.55202 10.0624 7.25664 10.0625 6.9545V4.375C10.0625 3.56277 9.73984 2.78382 9.16551 2.20949C8.59118 1.63516 7.81222 1.3125 7 1.3125Z" fill="white"/>
</g>
<defs>
<clipPath id="clip0_0_48">
<rect width="14" height="14" fill="white"/>
</clipPath>
</defs>
</svg>
