<svg width="29" height="27" viewBox="0 0 29 27" fill="none" xmlns="http://www.w3.org/2000/svg">
<path d="M7.80769 0L0 3.9184V27H29V6.84824H15.6154V3.9184L7.80769 0ZM7.80769 2.50106L13.3846 5.29991V24.7609H2.23077V5.29991L7.80769 2.50106ZM4.46154 6.84824V9.08733H6.69231V6.84824H4.46154ZM8.92308 6.84824V9.08733H11.1538V6.84824H8.92308ZM15.6154 9.08733H26.7692V24.7609H15.6154V9.08733ZM4.46154 11.3264V13.5655H6.69231V11.3264H4.46154ZM8.92308 11.3264V13.5655H11.1538V11.3264H8.92308ZM17.8462 11.3264V13.5655H20.0769V11.3264H17.8462ZM22.3077 11.3264V13.5655H24.5385V11.3264H22.3077ZM4.46154 15.8046V18.0437H6.69231V15.8046H4.46154ZM8.92308 15.8046V18.0437H11.1538V15.8046H8.92308ZM17.8462 15.8046V18.0437H20.0769V15.8046H17.8462ZM22.3077 15.8046V18.0437H24.5385V15.8046H22.3077ZM4.46154 20.2827V22.5218H6.69231V20.2827H4.46154ZM8.92308 20.2827V22.5218H11.1538V20.2827H8.92308ZM17.8462 20.2827V22.5218H20.0769V20.2827H17.8462ZM22.3077 20.2827V22.5218H24.5385V20.2827H22.3077Z" fill="url(#paint0_linear_0_652)"/>
<defs>
<linearGradient id="paint0_linear_0_652" x1="10.7726" y1="-17.01" x2="31.9705" y2="-12.3071" gradientUnits="userSpaceOnUse">
<stop stop-color="#2BB06F"/>
<stop offset="1" stop-color="#029643"/>
</linearGradient>
</defs>
</svg>
