<svg width="29" height="30" viewBox="0 0 29 30" fill="none" xmlns="http://www.w3.org/2000/svg">
<path d="M14.5 30C15.3832 30.0003 16.236 29.6671 16.8985 29.0629C17.561 28.4588 17.9874 27.6252 18.0978 26.7188C18.1286 26.4619 17.922 26.25 17.6719 26.25H11.3281C11.078 26.25 10.8714 26.4619 10.9022 26.7188C11.0126 27.6252 11.4391 28.4588 12.1015 29.0629C12.764 29.6671 13.6169 30.0003 14.5 30ZM5.43751 9.375C5.43751 6.8886 6.3923 4.50403 8.09185 2.74587C9.7914 0.98772 12.0965 0 14.5 0C16.9035 0 19.2086 0.98772 20.9082 2.74587C22.6077 4.50403 23.5625 6.8886 23.5625 9.375V14.9006C23.5625 14.9944 23.5897 15.0844 23.6386 15.1613L26.7253 19.9519C27.0004 20.3806 27.1581 20.8785 27.1815 21.3925C27.205 21.9065 27.0934 22.4175 26.8586 22.8712C26.6238 23.3249 26.2746 23.7043 25.848 23.969C25.4215 24.2338 24.9336 24.3741 24.4361 24.375H4.56388C4.06541 24.3762 3.57599 24.2372 3.14806 23.9727C2.72013 23.7083 2.3698 23.3284 2.13459 22.8737C1.89939 22.4191 1.78817 21.9068 1.81285 21.3918C1.83753 20.8767 1.99718 20.3784 2.27469 19.95L5.36138 15.1613C5.41064 15.0838 5.43708 14.9933 5.43751 14.9006V9.375ZM14.5 2.8125C12.8175 2.8125 11.204 3.5039 10.0143 4.73461C8.82461 5.96532 8.15626 7.63452 8.15626 9.375V14.9006C8.15626 15.5494 7.97138 16.1812 7.62338 16.7194L4.53669 21.5119C4.53302 21.5174 4.53112 21.5239 4.53126 21.5306L4.53307 21.5419C4.53307 21.5456 4.53669 21.5494 4.54032 21.5531L4.55119 21.5606L4.56388 21.5625H24.4361L24.4488 21.5606L24.4597 21.5531L24.4669 21.5419L24.4688 21.5288C24.4689 21.5221 24.467 21.5155 24.4633 21.51L21.3766 16.7213C21.029 16.1829 20.8435 15.5499 20.8438 14.9025V9.375C20.8438 7.63452 20.1754 5.96532 18.9857 4.73461C17.796 3.5039 16.1825 2.8125 14.5 2.8125Z" fill="url(#paint0_linear_0_81)"/>
<defs>
<linearGradient id="paint0_linear_0_81" x1="11.2355" y1="-18.9" x2="30.1203" y2="-15.6006" gradientUnits="userSpaceOnUse">
<stop stop-color="#2BB06F"/>
<stop offset="1" stop-color="#029643"/>
</linearGradient>
</defs>
</svg>
