<svg width="20" height="19" viewBox="0 0 20 19" fill="none" xmlns="http://www.w3.org/2000/svg">
<path d="M19.1667 5.39173C19.1674 5.27109 19.1442 5.1515 19.0986 5.03981C19.053 4.92813 18.9858 4.82655 18.9008 4.74089L15.0142 0.854228C14.9285 0.76927 14.8269 0.702055 14.7152 0.656437C14.6036 0.61082 14.484 0.587697 14.3633 0.588394C14.2427 0.587697 14.1231 0.61082 14.0114 0.656437C13.8997 0.702055 13.7981 0.76927 13.7125 0.854228L11.1183 3.44839L1.09916 13.4676C1.0142 13.5532 0.946989 13.6548 0.901371 13.7665C0.855754 13.8782 0.832631 13.9978 0.833328 14.1184V18.0051C0.833328 18.2482 0.929905 18.4813 1.10181 18.6532C1.27372 18.8252 1.50688 18.9217 1.74999 18.9217H5.63666C5.76493 18.9287 5.89323 18.9086 6.01325 18.8628C6.13326 18.8171 6.24231 18.7465 6.33333 18.6559L16.2975 8.63673L18.9008 6.08839C18.9845 5.99955 19.0527 5.8973 19.1025 5.78589C19.1113 5.71283 19.1113 5.63896 19.1025 5.56589C19.1068 5.52322 19.1068 5.48023 19.1025 5.43756L19.1667 5.39173ZM5.26083 17.0884H2.66666V14.4942L11.7692 5.39173L14.3633 7.98589L5.26083 17.0884ZM15.6558 6.69339L13.0617 4.09923L14.3633 2.80673L16.9483 5.39173L15.6558 6.69339Z" fill="white"/>
</svg>
