<svg width="24" height="24" viewBox="0 0 24 24" fill="none" xmlns="http://www.w3.org/2000/svg">
<path d="M13.8563 3.45939C13.8943 3.31654 13.9602 3.18259 14.0501 3.0652C14.14 2.94782 14.2521 2.84931 14.3801 2.7753C14.5081 2.70129 14.6495 2.65324 14.796 2.63388C14.9426 2.61453 15.0916 2.62426 15.2344 2.66252C16.6968 3.05668 18.0302 3.82781 19.1012 4.89882C20.1722 5.96983 20.9433 7.3032 21.3375 8.76564C21.3758 8.90846 21.3855 9.05741 21.3661 9.20399C21.3468 9.35057 21.2987 9.49189 21.2247 9.61988C21.1507 9.74787 21.0522 9.86002 20.9348 9.94992C20.8174 10.0398 20.6835 10.1057 20.5406 10.1438C20.446 10.17 20.3482 10.1827 20.25 10.1813C20.0025 10.1799 19.7623 10.0976 19.566 9.94691C19.3696 9.79627 19.2279 9.58556 19.1625 9.34689C18.873 8.2655 18.3038 7.27941 17.5122 6.48782C16.7206 5.69623 15.7345 5.12704 14.6531 4.83752C14.5103 4.79943 14.3763 4.73356 14.2589 4.64367C14.1416 4.55377 14.043 4.44162 13.969 4.31363C13.895 4.18564 13.847 4.04432 13.8276 3.89774C13.8083 3.75116 13.818 3.60221 13.8563 3.45939ZM22.0781 16.4625C21.9048 17.8197 21.2428 19.0671 20.2161 19.9714C19.1893 20.8756 17.8682 21.3746 16.5 21.375C8.85 21.375 2.625 15.15 2.625 7.50002C2.62538 6.13185 3.1244 4.81072 4.02864 3.78396C4.93288 2.75719 6.18035 2.0952 7.5375 1.92189C7.9407 1.87147 8.34934 1.95406 8.70131 2.15712C9.05328 2.36018 9.32933 2.6726 9.4875 3.04689L11.3719 7.43439C11.4963 7.71889 11.5478 8.02994 11.5216 8.33935C11.4954 8.64876 11.3924 8.94674 11.2219 9.20627L9.77813 11.4C10.4177 12.6087 11.408 13.5957 12.6188 14.2313L14.7844 12.7875C15.0449 12.6155 15.344 12.5109 15.6549 12.4831C15.9658 12.4552 16.2787 12.5051 16.5656 12.6281L20.9531 14.5125C21.3274 14.6707 21.6398 14.9467 21.8429 15.2987C22.046 15.6507 22.1286 16.0593 22.0781 16.4625ZM19.8 16.4625L15.8625 14.775L13.6875 16.2281C13.417 16.4071 13.1048 16.5133 12.7813 16.5362C12.4577 16.5592 12.1337 16.4983 11.8406 16.3594C10.0209 15.4781 8.54882 14.0126 7.65937 12.1969C7.51634 11.9053 7.45232 11.5813 7.4737 11.2572C7.49509 10.9331 7.60114 10.6203 7.78125 10.35L9.225 8.13752L7.5375 4.20002C6.78336 4.3629 6.10779 4.77924 5.62333 5.37971C5.13886 5.98017 4.87476 6.72849 4.875 7.50002C4.87748 10.5824 6.10305 13.5378 8.28263 15.7174C10.4622 17.897 13.4176 19.1225 16.5 19.125C17.2715 19.1253 18.0199 18.8612 18.6203 18.3767C19.2208 17.8922 19.6371 17.2167 19.8 16.4625ZM13.65 8.39064C14.1112 8.53351 14.5306 8.78659 14.872 9.12799C15.2134 9.46939 15.4665 9.88883 15.6094 10.35C15.6827 10.5784 15.8266 10.7777 16.0203 10.9192C16.214 11.0607 16.4476 11.1371 16.6875 11.1375C16.8023 11.1372 16.9163 11.1182 17.025 11.0813C17.1657 11.0375 17.2964 10.9664 17.4095 10.8718C17.5226 10.7773 17.6158 10.6613 17.6838 10.5306C17.7518 10.3998 17.7932 10.2569 17.8056 10.1101C17.8181 9.9632 17.8013 9.81535 17.7562 9.67502C17.504 8.86847 17.0601 8.13504 16.4625 7.53748C15.865 6.93992 15.1315 6.49602 14.325 6.24377C14.0403 6.15426 13.7317 6.18151 13.4671 6.31952C13.2025 6.45754 13.0036 6.69501 12.9141 6.97971C12.8246 7.2644 12.8518 7.57299 12.9898 7.83759C13.1278 8.1022 13.3653 8.30113 13.65 8.39064Z" fill="url(#paint0_linear_0_575)"/>
<defs>
<linearGradient id="paint0_linear_0_575" x1="4.27974" y1="1.90747" x2="12.3588" y2="21.375" gradientUnits="userSpaceOnUse">
<stop stop-color="#7FBFE6"/>
<stop offset="1" stop-color="#0097D7"/>
</linearGradient>
</defs>
</svg>
