<svg width="20" height="20" viewBox="0 0 20 20" fill="none" xmlns="http://www.w3.org/2000/svg">
<path d="M4.36251 14.675C5.14168 14.0792 6.01251 13.6093 6.97501 13.2652C7.93751 12.9218 8.94584 12.75 10 12.75C11.0542 12.75 12.0625 12.9218 13.025 13.2652C13.9875 13.6093 14.8583 14.0792 15.6375 14.675C16.1722 14.0487 16.5887 13.3382 16.8869 12.5438C17.1845 11.7493 17.3333 10.9014 17.3333 10C17.3333 7.9681 16.6193 6.23774 15.1911 4.80896C13.7623 3.38079 12.032 2.66671 10 2.66671C7.96807 2.66671 6.23801 3.38079 4.80984 4.80896C3.38107 6.23774 2.66668 7.9681 2.66668 10C2.66668 10.9014 2.81579 11.7493 3.11401 12.5438C3.41162 13.3382 3.82779 14.0487 4.36251 14.675ZM10 10.9167C9.09862 10.9167 8.3384 10.6075 7.71934 9.98904C7.1009 9.36999 6.79168 8.60976 6.79168 7.70837C6.79168 6.80699 7.1009 6.04676 7.71934 5.42771C8.3384 4.80926 9.09862 4.50004 10 4.50004C10.9014 4.50004 11.6616 4.80926 12.2807 5.42771C12.8991 6.04676 13.2083 6.80699 13.2083 7.70837C13.2083 8.60976 12.8991 9.36999 12.2807 9.98904C11.6616 10.6075 10.9014 10.9167 10 10.9167ZM10 19.1667C8.73195 19.1667 7.54029 18.9259 6.42501 18.4444C5.30973 17.9634 4.33959 17.3105 3.51459 16.4855C2.68959 15.6605 2.03662 14.6903 1.55568 13.575C1.07412 12.4598 0.833344 11.2681 0.833344 10C0.833344 8.73199 1.07412 7.54032 1.55568 6.42504C2.03662 5.30976 2.68959 4.33962 3.51459 3.51462C4.33959 2.68962 5.30973 2.03635 6.42501 1.55479C7.54029 1.07385 8.73195 0.833374 10 0.833374C11.2681 0.833374 12.4597 1.07385 13.575 1.55479C14.6903 2.03635 15.6604 2.68962 16.4854 3.51462C17.3104 4.33962 17.9634 5.30976 18.4443 6.42504C18.9259 7.54032 19.1667 8.73199 19.1667 10C19.1667 11.2681 18.9259 12.4598 18.4443 13.575C17.9634 14.6903 17.3104 15.6605 16.4854 16.4855C15.6604 17.3105 14.6903 17.9634 13.575 18.4444C12.4597 18.9259 11.2681 19.1667 10 19.1667ZM10 17.3334C10.8097 17.3334 11.5736 17.2151 12.2917 16.9786C13.0097 16.7415 13.6667 16.4014 14.2625 15.9584C13.6667 15.5153 13.0097 15.1752 12.2917 14.9381C11.5736 14.7016 10.8097 14.5834 10 14.5834C9.19029 14.5834 8.4264 14.7016 7.70834 14.9381C6.99029 15.1752 6.33334 15.5153 5.73751 15.9584C6.33334 16.4014 6.99029 16.7415 7.70834 16.9786C8.4264 17.2151 9.19029 17.3334 10 17.3334ZM10 9.08337C10.3972 9.08337 10.7257 8.95351 10.9854 8.69379C11.2451 8.43407 11.375 8.1056 11.375 7.70837C11.375 7.31115 11.2451 6.98268 10.9854 6.72296C10.7257 6.46324 10.3972 6.33337 10 6.33337C9.60279 6.33337 9.27432 6.46324 9.01459 6.72296C8.75487 6.98268 8.62501 7.31115 8.62501 7.70837C8.62501 8.1056 8.75487 8.43407 9.01459 8.69379C9.27432 8.95351 9.60279 9.08337 10 9.08337Z" fill="#01A856"/>
</svg>
