<svg width="272" height="272" viewBox="0 0 272 272" fill="none" xmlns="http://www.w3.org/2000/svg">
<path d="M183.812 169.469C180.879 169.469 178.5 171.847 178.5 174.781V211.438C178.5 226.084 166.584 238 151.938 238H94.5795C91.6465 238 89.2691 240.376 89.267 243.309L89.2596 253.871L76.5797 241.192C76.1665 240.243 75.4853 239.436 74.6199 238.869C73.7544 238.302 72.7422 238 71.7076 238H37.1875C22.5409 238 10.625 226.084 10.625 211.438V129.625C10.625 114.978 22.5409 103.062 37.1875 103.062H90.8438C93.7773 103.062 96.1562 100.684 96.1562 97.75C96.1562 94.8159 93.7773 92.4375 90.8438 92.4375H37.1875C16.6823 92.4375 0 109.12 0 129.625V211.438C0 231.943 16.6823 248.625 37.1875 248.625H68.9871L90.806 270.444C91.5486 271.187 92.4948 271.693 93.525 271.898C94.5551 272.103 95.623 271.998 96.5935 271.596C97.5641 271.195 98.3939 270.514 98.978 269.641C99.5621 268.768 99.8742 267.742 99.875 266.691L99.8877 248.625H151.938C172.443 248.625 189.125 231.943 189.125 211.438V174.781C189.125 171.847 186.746 169.469 183.812 169.469Z" fill="#E4F6FF"/>
<path d="M194.785 0H181.34C138.764 0 104.125 34.6386 104.125 77.2151C104.125 119.792 138.764 154.43 181.34 154.43H194.785C201.43 154.43 208.008 153.585 214.383 151.917L234.245 171.768C234.988 172.511 235.934 173.016 236.965 173.221C237.995 173.426 239.063 173.32 240.034 172.918C241.004 172.516 241.834 171.835 242.417 170.962C243.001 170.088 243.312 169.061 243.312 168.01V137.274C251.722 130.464 258.707 121.862 263.609 112.252C269.177 101.336 272 89.5486 272 77.2151C272 34.6386 237.361 0 194.785 0ZM234.803 130.44C234.146 130.936 233.613 131.577 233.246 132.313C232.879 133.05 232.688 133.861 232.688 134.684V155.19L219.687 142.197C219.005 141.515 218.149 141.032 217.213 140.799C216.276 140.567 215.294 140.594 214.372 140.877C208.048 142.82 201.458 143.805 194.785 143.805H181.34C144.622 143.805 114.75 113.933 114.75 77.2151C114.75 40.4972 144.622 10.625 181.34 10.625H194.785C231.503 10.625 261.375 40.4972 261.375 77.2151C261.375 98.3222 251.69 117.722 234.803 130.44Z" fill="#E4F6FF"/>
<path d="M211.986 58.1299C211.22 47.0082 202.254 38.0428 191.132 37.2762C184.827 36.8432 178.81 38.9698 174.205 43.2692C169.663 47.5091 167.058 53.5027 167.058 59.7136C167.058 62.6476 169.437 65.0261 172.37 65.0261C175.304 65.0261 177.683 62.6476 177.683 59.7136C177.683 56.3885 179.023 53.3067 181.455 51.0366C183.885 48.7687 187.061 47.6462 190.402 47.8768C196.261 48.2805 200.983 53.0028 201.387 58.8609C201.795 64.7774 197.913 70.006 192.157 71.2937C187.494 72.3371 184.237 76.3895 184.237 81.1479V93.9112C184.237 96.8453 186.616 99.2237 189.55 99.2237C192.484 99.2237 194.863 96.8453 194.862 93.9112V81.5724C205.567 78.9862 212.749 69.191 211.986 58.1299ZM193.306 111.169C192.318 110.181 190.947 109.613 189.55 109.613C188.153 109.613 186.782 110.181 185.794 111.169C184.801 112.168 184.242 113.517 184.237 114.925C184.237 116.328 184.806 117.698 185.794 118.687C186.782 119.675 188.153 120.238 189.55 120.238C190.947 120.238 192.318 119.675 193.306 118.687C194.299 117.686 194.858 116.335 194.862 114.925C194.862 113.528 194.294 112.157 193.306 111.169ZM146.094 164.687H34C31.0664 164.687 28.6875 167.066 28.6875 170C28.6875 172.934 31.0664 175.312 34 175.312H146.094C149.028 175.312 151.406 172.934 151.406 170C151.406 167.066 149.027 164.687 146.094 164.687ZM149.849 195.994C148.862 195.006 147.491 194.437 146.094 194.437C144.697 194.437 143.326 195.006 142.338 195.994C141.349 196.982 140.781 198.353 140.781 199.75C140.781 201.147 141.35 202.518 142.338 203.506C143.326 204.494 144.697 205.062 146.094 205.062C147.491 205.062 148.862 204.494 149.849 203.506C150.843 202.508 151.403 201.158 151.406 199.75C151.406 198.353 150.837 196.982 149.849 195.994ZM125.198 194.437H34C31.0664 194.437 28.6875 196.816 28.6875 199.75C28.6875 202.684 31.0664 205.062 34 205.062H125.198C128.132 205.062 130.511 202.684 130.511 199.75C130.511 196.816 128.132 194.437 125.198 194.437ZM111.562 134.937H34C31.0664 134.937 28.6875 137.316 28.6875 140.25C28.6875 143.184 31.0664 145.562 34 145.562H111.562C114.497 145.562 116.875 143.184 116.875 140.25C116.875 137.316 114.496 134.937 111.562 134.937Z" fill="#E4F6FF"/>
</svg>
